Coordinates
version=1
nRows=14
nColumns=36
inDegrees=yes

Units are S.I. units (second, meters, Newtons, ...)
If the header above contains a line with 'inDegrees', this indicates whether rotational values are in degrees (yes) or radians (no).

endheader
time	pelvis_tilt	pelvis_list	pelvis_rotation	pelvis_tx	pelvis_ty	pelvis_tz	hip_flexion_r	hip_adduction_r	hip_rotation_r	knee_angle_r	knee_angle_r_beta	ankle_angle_r	subtalar_angle_r	mtp_angle_r	hip_flexion_l	hip_adduction_l	hip_rotation_l	knee_angle_l	knee_angle_l_beta	ankle_angle_l	subtalar_angle_l	mtp_angle_l	lumbar_extension	lumbar_bending	lumbar_rotation	arm_flex_r	arm_add_r	arm_rot_r	elbow_flex_r	pro_sup_r	arm_flex_l	arm_add_l	arm_rot_l	elbow_flex_l	pro_sup_l
     14.83333330	     -7.25980666	      3.40180067	     -0.19706339	      0.85543071	      1.01263257	      0.82341297	     30.30002135	     -7.02621581	     -4.67453262	     10.53148537	      0.18380909	      5.80560037	      3.98998919	     -7.49999987	      4.57687847	      2.98184492	     -7.80923208	     14.15705437	      0.24708721	     18.06280968	      4.93503983	     -7.49999987	     -3.47532477	      0.31705982	     -2.81887389	      1.52764333	     -9.46315124	     -2.55722722	     16.89555806	     74.54491028	     12.29216415	     -9.76799372	     -5.67482146	     41.72159429	     71.23505836
     14.85000000	     -7.07523321	      3.38257318	     -0.32075292	      0.85530943	      1.01194625	      0.82433307	     30.06422209	     -6.72192263	     -5.20190390	      8.40750777	      0.14673869	      6.22485914	      5.60140613	     -7.49999987	      3.57911169	      2.95785376	     -8.09518617	     14.13726561	      0.24674183	     19.41080826	      5.27616527	     -7.49999987	     -3.68429298	      0.34430359	     -2.60805181	      1.82477243	     -9.58223905	     -2.45377057	     16.27494290	     75.47999226	     12.38498323	     -9.66921155	     -5.43424269	     42.07821289	     71.67746388
     14.86666670	     -7.28923861	      3.25386450	     -0.42758786	      0.85457347	      1.00942145	      0.82580043	     30.28974490	     -6.23334264	     -5.21841938	      7.40481209	      0.12923835	      6.38848360	      6.02974460	     -7.49999987	      3.13845091	      2.81870408	     -8.07708753	     14.28068316	      0.24924494	     20.50447435	      4.96466463	     -7.49999987	     -3.39325596	      0.52762331	     -2.48525349	      2.01976717	     -9.72841719	     -2.46447901	     16.26276568	     75.56517282	     12.20971335	     -9.52801723	     -5.35966927	     42.08369547	     71.71819240
     14.88333330	     -7.32995588	      2.52574476	     -0.43752868	      0.85374258	      1.00761354	      0.82745053	     30.23681154	     -5.30332392	     -6.23819384	      7.43089881	      0.12969365	      6.29625664	      6.96609079	     -7.49999987	      2.71242383	      1.91156505	     -8.52310284	     14.85859456	      0.25933140	     21.80364011	      5.47845961	     -7.49999987	     -3.29594946	      1.52902550	     -2.40278782	      2.73883391	    -10.05274443	     -2.33096192	     15.47095558	     76.35245626	     12.08149926	     -9.22929489	     -5.07345868	     41.63761561	     72.06470819
     14.90000000	     -7.33334678	      1.91843908	     -0.55959865	      0.85562208	      1.00922249	      0.83010302	     30.11184908	     -4.42020132	     -6.65333603	      8.33171195	      0.14541581	      5.57579503	      6.72708668	     -7.49999987	      2.24064930	      1.14334593	     -8.76200073	     15.53858180	      0.27119941	     22.48324659	      5.20724252	     -7.49999987	     -3.21734471	      2.30590391	     -2.18544791	      3.21081533	    -10.32584641	     -2.26804782	     15.33468542	     76.62982259	     11.82708579	     -8.91180267	     -5.01593021	     41.29203128	     72.17277322
     14.91666670	     -7.06288910	      1.05748902	     -0.55726700	      0.86295172	      1.01433644	      0.83425337	     29.34470972	     -3.33760923	     -7.27071233	      9.41048585	      0.16424396	      4.14345384	      5.82976612	     -7.49999987	      1.39537060	      0.05687567	     -9.07185411	     16.40535148	      0.28632740	     22.88771141	      5.31331202	     -7.49999987	     -3.12996761	      3.30117281	     -2.05118299	      3.51797129	    -10.57402207	     -2.08343492	     15.04218907	     77.08510474	     11.41685884	     -8.43783753	     -5.18121259	     40.18143484	     72.28816550
     14.93333330	     -6.54942025	      0.23396591	     -0.65023641	      0.87229995	      1.02022875	      0.83981400	     28.19621407	     -2.18672343	     -7.50577430	     10.54473792	      0.18404040	      2.58983365	      4.53173737	     -7.49999987	      0.26850120	     -1.03876951	     -9.52372512	     17.58467165	      0.30691042	     22.80885131	      5.52073789	     -7.49999987	     -3.14473722	      4.16635986	     -1.83912122	      3.73936881	    -10.73500269	     -1.65401789	     14.54295705	     77.97411100	     10.92940702	     -7.87653464	     -5.81396046	     38.18973648	     72.51327277
     14.95000000	     -6.31146634	     -0.72166104	     -0.65793348	      0.87830351	      1.02391995	      0.84461851	     27.24100397	     -0.91421494	     -7.74283181	     11.43945555	      0.19965616	      1.38323974	      3.49280685	     -7.49999987	     -0.37741663	     -2.29786055	     -9.73048681	     19.31815265	      0.33716537	     22.39639510	      5.31662585	     -7.49999987	     -2.80185646	      5.17786038	     -1.70755685	      3.70881449	    -10.89509362	     -0.89864181	     14.18050200	     79.19238958	      9.98420746	     -7.31998032	     -6.44549549	     36.27835244	     72.97582934
     14.96666670	     -6.15281356	     -1.68379328	     -0.64109596	      0.87967392	      1.02428754	      0.84766690	     26.43169997	      0.35923151	     -7.78256698	     12.19956515	      0.21292258	      0.76841661	      2.49901549	     -7.49999987	     -0.69585302	     -3.58983725	     -9.86320271	     21.39922536	      0.37348694	     21.71149841	      4.94653585	     -7.49999987	     -2.58697971	      6.20173157	     -1.41298686	      3.56870941	    -10.96842922	     -1.02802691	     14.01795038	     79.30405055	      9.11420244	     -6.73169200	     -7.04603185	     34.31514016	     73.05285119
     14.98333330	     -6.05624596	     -2.62994311	     -0.66082682	      0.88007069	      1.02305929	      0.84913463	     25.76392299	      1.59626998	     -7.62464349	     12.94174084	      0.22587599	      0.81521669	      1.45362347	     -7.49999987	     -0.75142403	     -4.84227773	     -9.83581885	     23.62524846	      0.41233837	     20.47462725	      4.09479321	     -7.49999987	     -2.44681064	      7.27841096	     -1.01479868	      3.40847334	    -11.10631182	     -1.27581485	     13.98858105	     79.26135725	      8.37145860	     -6.19679430	     -7.31706860	     32.33587921	     73.17674175
     15.00000000	     -5.85206406	     -3.69289452	     -0.70600736	      0.88184053	      1.02058057	      0.84967205	     25.00841141	      2.91965816	     -7.38069355	     13.76609907	      0.24026375	      1.38324819	      0.25954668	     -7.49999987	     -0.74465216	     -6.20809676	     -9.53719374	     26.01624369	      0.45406911	     18.74363862	      2.83767709	     -7.49999987	     -2.44551853	      8.55722410	     -0.63440968	      3.27301917	    -11.27109667	     -1.68986085	     14.01227137	     79.03947004	      7.66338630	     -5.63538267	     -7.58973154	     30.46722088	     73.25597262
     15.01666670	     -5.77939006	     -4.86875545	     -0.76637716	      0.88280028	      1.01869825	      0.85023978	     24.40795496	      4.32439285	     -7.13515855	     14.73326760	      0.25714403	      2.27353687	     -1.22809792	     -7.49999987	     -0.30430315	     -7.71648358	     -8.99863760	     28.80691534	      0.50277552	     16.52451342	      1.16797059	     -7.49999987	     -2.23263935	     10.06650017	     -0.26658044	      3.12929983	    -11.59148885	     -2.03169097	     14.10113030	     78.23227196	      6.77180397	     -4.95733634	     -7.93754607	     29.03391823	     72.73430558
     15.03333330	     -5.77393413	     -5.95125795	     -0.87917356	      0.88227332	      1.01710593	      0.85278246	     23.91108995	      5.63640082	     -6.89488784	     15.86432014	      0.27688462	      3.52846207	     -2.51454917	     -7.49999987	      0.49522613	     -9.09501478	     -8.13688415	     31.87923729	      0.55639765	     13.89927551	     -0.88451354	     -7.49999987	     -1.89571793	     11.49111264	      0.10608513	      3.07846481	    -12.02416379	     -1.56394791	     14.19691312	     78.01330672	      5.93678589	     -4.30559885	     -8.19086928	     27.27508328	     72.69465449
     15.05000000	     -5.76894758	     -7.06019296	     -0.89501686	      0.88262859	      1.01700452	      0.85809039	     23.35044358	      6.99533803	     -6.69073196	     16.88280559	      0.29466054	      4.86852038	     -3.97699952	     -7.49999987	      1.63145678	    -10.53159824	     -7.06982747	     35.27189635	      0.61561072	     11.06950517	     -2.96764028	     -7.49999987	     -1.58484898	     12.88404303	      0.37520726	      3.11140588	    -12.42437661	     -1.29845776	     14.40335533	     77.44758587	      4.99319211	     -3.76785365	     -8.38451759	     25.81562522	     72.42863573
